<?xml version="1.0" encoding="UTF-8" standalone="no"?>
<!DOCTYPE svg PUBLIC "-//W3C//DTD SVG 1.1//EN" "http://www.w3.org/Graphics/SVG/1.1/DTD/svg11.dtd">
<svg width="100%" height="100%" viewBox="0 0 512 471" version="1.1" xmlns="http://www.w3.org/2000/svg" xmlns:xlink="http://www.w3.org/1999/xlink" xml:space="preserve" xmlns:serif="http://www.serif.com/" style="fill-rule:evenodd;clip-rule:evenodd;stroke-linecap:round;stroke-linejoin:round;stroke-miterlimit:1.5;">
    <g transform="matrix(0.63955,0,0,0.63955,-57.5974,-51.6311)">
        <path d="M365.035,99.381C418.548,121.119 449.985,160.165 472.376,214.423L519.492,215.169C519.492,215.169 488.773,87.439 365.035,99.381Z" style="stroke:black;stroke-width:7.2px;"/>
    </g>
    <g transform="matrix(0.63955,0,0,0.63955,-265.562,-49.5168)">
        <path d="M814.675,202.608C811.082,163.589 766.543,122.409 738.393,112.195" style="fill:none;stroke:white;stroke-width:13.16px;stroke-linecap:butt;stroke-miterlimit:2.0122;stroke-dasharray:13.16,13.16;"/>
    </g>
    <g id="Layer1" transform="matrix(0.63955,0,0,0.63955,-57.5974,-50.9233)">
        <g opacity="0.81">
            <path d="M676.684,101.384L362.918,98.938C315.011,130.566 287.242,180.411 285.922,254.186L292.79,615.391L251.264,745.745L187.209,792.046L482.927,794.153L561.327,751.63L619.581,641.617L596.695,262.638L639.895,138.967L676.684,101.384Z" style="fill:rgb(217,217,217);"/>
        </g>
    </g>
    <g id="Layer3" transform="matrix(0.63955,0,0,0.63955,-57.5974,-50.9233)">
        <g transform="matrix(0.472704,0,-0.381363,1,285.001,-1.12293)">
            <rect x="204.438" y="387.195" width="576.545" height="118.844" style="fill:rgb(64,64,64);stroke:black;stroke-width:10.13px;"/>
        </g>
        <g transform="matrix(0.472704,0,-0.381363,1,609.791,-1.12293)">
            <rect x="204.438" y="387.195" width="576.545" height="118.844" style="fill:rgb(64,64,64);stroke:black;stroke-width:10.13px;"/>
        </g>
    </g>
    <g id="Layer2" transform="matrix(0.63955,0,0,0.63955,-57.5974,-50.9233)">
        <path d="M134.902,796.618L465.75,797.533" style="fill:none;stroke:black;stroke-width:7.2px;"/>
        <path d="M269.293,741.505L551.283,740.226" style="fill:none;stroke:black;stroke-width:7.2px;"/>
        <path d="M305.471,622.541L599.335,620.41" style="fill:none;stroke:black;stroke-width:7.2px;"/>
        <path d="M299.716,268.902L587.461,268.713" style="fill:none;stroke:black;stroke-width:7.2px;"/>
        <path d="M328.623,146.192L618.435,144.819" style="fill:none;stroke:black;stroke-width:7.2px;"/>
        <path d="M367.096,98.039L714.547,97.424" style="fill:none;stroke:black;stroke-width:7.2px;"/>
    </g>
    <g transform="matrix(0.63955,0,0,0.63955,-57.5974,-51.6311)">
        <path d="M365.035,99.381C304.049,106.036 264.22,162.325 258.228,270.563L269.445,626.947C269.015,702.091 223.901,759.474 133.179,798.729C224.65,798.8 296.632,754.698 310.346,625.27L300.803,272.059C303.208,197.802 327.016,139.137 365.035,99.381Z" style="stroke:black;stroke-width:7.2px;"/>
    </g>
    <g transform="matrix(0.63955,0,0,0.63955,152.182,-51.6311)">
        <path d="M365.035,99.381C304.049,106.036 264.22,162.325 258.228,270.563L269.445,626.947C269.015,702.091 223.901,759.474 133.179,798.729C224.65,798.8 296.632,754.698 310.346,625.27L300.803,272.059C303.208,197.802 327.016,139.137 365.035,99.381Z" style="stroke:black;stroke-width:7.2px;"/>
        <path d="M365.035,99.381C418.548,121.119 449.985,160.165 472.376,214.423L519.492,215.169C519.492,215.169 488.773,87.439 365.035,99.381Z" style="stroke:black;stroke-width:7.2px;"/>
    </g>
    <g id="Layer4" transform="matrix(0.63955,0,0,0.63955,-57.5974,-50.9233)">
        <g transform="matrix(1,0,0,1,0,-1.89958)">
            <path d="M328.723,123.833C299.745,154.645 283.443,204.507 277.042,269.249L287.269,626.046C281.034,703.572 246.745,754.189 188.655,781.977" style="fill:none;stroke:white;stroke-width:13.16px;stroke-linecap:butt;stroke-miterlimit:2.0122;stroke-dasharray:13.16,13.16;"/>
        </g>
        <g transform="matrix(1,0,0,1,331.102,-1.89958)">
            <path d="M328.723,123.833C299.745,154.645 283.443,204.507 277.042,269.249L287.269,626.046C281.034,703.572 246.745,754.189 188.655,781.977" style="fill:none;stroke:white;stroke-width:13.16px;stroke-linecap:butt;stroke-miterlimit:2.0122;stroke-dasharray:13.16,13.16;"/>
        </g>
        <g transform="matrix(1,0,0,1,0,2.19912)">
            <path d="M814.675,202.608C811.082,163.589 766.543,122.409 738.393,112.195" style="fill:none;stroke:white;stroke-width:13.16px;stroke-linecap:butt;stroke-miterlimit:2.0122;stroke-dasharray:13.16,13.16;"/>
        </g>
    </g>
</svg>
