<?xml version="1.0" standalone="no"?>
<!DOCTYPE svg PUBLIC "-//W3C//DTD SVG 20010904//EN"
 "http://www.w3.org/TR/2001/REC-SVG-20010904/DTD/svg10.dtd">
<svg version="1.0" xmlns="http://www.w3.org/2000/svg"
 width="700.000000pt" height="700.000000pt" viewBox="0 0 700.000000 700.000000"
 preserveAspectRatio="xMidYMid meet">
<metadata>
Created by potrace 1.11, written by Peter Selinger 2001-2013
</metadata>
<g transform="translate(0.000000,700.000000) scale(0.100000,-0.100000)"
fill="#000000" stroke="none">
<path d="M5136 6593 c-1 -2 -616 -3 -1367 -3 -1303 0 -1368 -1 -1454 -19 -386
-82 -652 -387 -786 -900 -32 -123 -64 -306 -77 -431 -9 -91 -8 -389 2 -675 4
-115 9 -272 11 -347 l5 -137 -77 1 c-129 1 -131 1 -147 -29 -11 -23 -233 -598
-307 -798 -11 -27 -39 -102 -63 -165 -24 -63 -42 -120 -39 -126 2 -7 111 -10
336 -10 l332 0 2 -44 c0 -25 4 -128 7 -230 3 -102 9 -279 12 -395 14 -412 10
-504 -25 -656 -87 -372 -307 -667 -690 -923 -96 -64 -341 -195 -431 -231 -32
-13 -39 -52 -11 -63 11 -4 68 -5 128 -2 59 3 383 4 718 3 1275 -3 2191 -3
2215 1 14 2 54 7 90 11 36 4 72 8 80 10 8 2 31 6 50 10 116 21 259 69 374 126
393 196 638 548 755 1088 12 52 24 115 27 140 3 26 9 71 13 101 5 30 7 87 6
125 -3 67 -9 295 -21 724 -3 116 -1 197 5 200 5 3 281 5 613 4 331 -1 617 0
634 3 37 5 28 -15 161 334 58 151 127 331 153 400 102 264 143 380 137 386 -4
4 -396 7 -872 7 l-865 0 -1 21 c-1 12 -2 68 -4 126 -1 58 -6 224 -11 370 -12
409 -9 626 11 729 2 13 7 42 9 65 3 22 8 52 11 66 3 14 8 41 11 60 11 61 54
219 85 313 80 234 226 493 367 647 l32 34 52 -22 c171 -72 374 -225 516 -387
99 -113 227 -327 316 -527 14 -32 27 -58 28 -59 2 0 102 -3 224 -5 177 -4 223
-2 232 8 21 26 -117 375 -174 439 -8 8 -14 19 -14 22 0 4 -16 31 -36 60 -176
253 -407 426 -667 501 -123 35 -242 49 -440 50 -98 1 -180 0 -181 -1z m-168
-97 c-118 -58 -261 -181 -325 -278 l-26 -38 -81 -1 c-44 0 -305 -2 -579 -3
l-497 -3 -68 67 c-99 100 -199 172 -311 226 -55 27 -100 51 -101 54 0 3 462 6
1028 7 l1027 3 -67 -34z m-2238 -160 c47 -36 110 -87 140 -115 l55 -51 -315 0
c-173 -1 -340 -1 -370 -2 -30 0 -60 1 -67 1 -25 2 122 219 221 327 l20 22 115
-59 c64 -32 154 -88 201 -123z m1840 -222 c0 -1 -20 -41 -44 -90 -86 -176
-158 -413 -180 -599 -4 -27 -8 -61 -11 -75 -5 -29 -12 -88 -20 -180 -4 -36 -9
-67 -12 -70 -2 -3 -549 -5 -1215 -6 l-1211 0 7 95 c14 212 61 445 127 639 42
119 107 271 118 273 3 0 196 2 429 3 l422 3 56 -74 c31 -40 73 -102 95 -136
43 -68 179 -338 179 -355 0 -22 30 -26 240 -29 179 -4 219 -2 228 10 28 33
-95 324 -208 496 l-59 91 357 2 c373 3 702 4 702 2z m-259 -1171 c1 -49 2
-119 4 -158 1 -38 6 -173 10 -300 3 -126 8 -269 10 -317 l3 -87 -72 1 c-152 1
-164 0 -178 -24 -25 -47 -415 -1083 -412 -1093 3 -8 109 -11 340 -10 184 0
340 -2 347 -5 7 -3 13 -30 13 -70 1 -36 4 -150 8 -255 3 -104 9 -283 12 -397
l6 -208 -49 0 c-26 -1 -329 -3 -673 -5 -344 -3 -871 -7 -1172 -9 -302 -3 -549
-1 -549 2 -4 23 -20 600 -22 792 l-2 154 650 2 c358 0 653 2 656 3 9 1 35 65
104 246 31 83 67 177 80 210 13 33 49 128 80 210 32 83 82 215 112 293 38 100
52 147 45 154 -7 7 -291 11 -886 11 l-876 0 0 36 c-1 20 -3 88 -5 151 -2 63
-6 237 -10 385 -4 149 -8 294 -10 323 l-2 52 1218 0 1219 0 1 -87z m93 -3043
c-13 -217 -50 -376 -129 -546 -50 -110 -156 -265 -237 -346 l-36 -38 -494 -1
c-271 0 -805 -2 -1185 -4 -381 -1 -693 -1 -693 1 0 2 19 34 42 71 137 225 244
548 274 833 4 30 9 58 13 62 3 4 436 10 961 14 525 3 956 7 957 8 1 0 120 1
266 1 l264 1 -3 -56z m-496 -1021 c-116 -104 -297 -223 -495 -327 l-148 -77
-1167 0 c-642 0 -1164 3 -1160 6 4 3 31 14 60 23 164 52 357 172 490 306 l89
89 453 1 c250 0 455 2 456 3 1 1 329 3 729 4 l726 2 -33 -30z"/>
</g>
</svg>
